#N canvas 0 0 1334 658 10;
#X obj 195 20 inlet;
#X obj 195 46 t b a;
#X obj 287 102 s \$0-myd;
#X obj 344 103 s \$0-myp;
#X obj 210 133 r \$0-myd;
#X obj 195 158 f;
#X obj 222 102 s \$0-mygs;
#X msg 270 207 0 \, 1 \$1 0;
#X obj 270 229 vline~;
#X obj 195 185 t f f;
#X obj 270 253 *~;
#X obj 310 253 r \$0-myp;
#X obj 194 214 / 1000;
#X obj 194 238 sig~;
#X obj 208 344 *~;
#X obj 209 376 +~;
#X obj 268 362 r \$0-mygs;
#X obj 35 306 *~ 2048;
#X obj 258 579 *~;
#X floatatom 274 174 5 0 0 0 - - -, f 5;
#X obj 209 417 +~;
#X obj 366 403 random 10000;
#X obj 270 314 *~;
#X obj 483 260 random 200;
#X obj 483 291 / 10000;
#X obj 483 322 + 1;
#X obj 633 487 hsl 128 15 0 1 0 0 empty empty empty -2 -8 0 10 -262144
-1 -1 0 1;
#X obj 377 604 *~;
#X obj 509 605 *~;
#X obj 538 551 expr sqrt(1-$f1);
#X obj 655 554 expr sqrt($f1);
#X floatatom 619 436 5 0 0 0 - - -, f 5;
#X obj 615 341 bng 15 250 50 0 empty empty empty 17 7 0 10 -262144
-1 -1;
#X obj 620 368 random 100;
#X obj 625 410 / 100;
#X obj 224 72 unpack f f f s;
#X msg 676 201 set \$1;
#X symbolatom 735 324 10 0 0 0 - - -, f 10;
#X obj 35 327 tabread4~ env-gaussian;
#X obj 203 466 tabread4~ sample-array3;
#X obj 412 652 throw~ bus3L;
#X obj 504 656 throw~ bus3R;
#X connect 0 0 1 0;
#X connect 1 0 5 0;
#X connect 1 0 21 0;
#X connect 1 0 23 0;
#X connect 1 0 32 0;
#X connect 1 1 35 0;
#X connect 4 0 5 1;
#X connect 5 0 9 0;
#X connect 5 0 19 0;
#X connect 7 0 8 0;
#X connect 8 0 10 0;
#X connect 8 0 17 0;
#X connect 9 0 12 0;
#X connect 9 1 7 0;
#X connect 10 0 22 0;
#X connect 11 0 10 1;
#X connect 12 0 13 0;
#X connect 13 0 14 0;
#X connect 14 0 15 0;
#X connect 15 0 20 0;
#X connect 16 0 15 1;
#X connect 17 0 38 0;
#X connect 18 0 27 0;
#X connect 18 0 28 0;
#X connect 20 0 39 0;
#X connect 21 0 20 1;
#X connect 22 0 14 1;
#X connect 23 0 24 0;
#X connect 24 0 25 0;
#X connect 25 0 22 1;
#X connect 26 0 29 0;
#X connect 26 0 30 0;
#X connect 27 0 40 0;
#X connect 28 0 41 0;
#X connect 29 0 27 1;
#X connect 30 0 28 1;
#X connect 31 0 26 0;
#X connect 32 0 33 0;
#X connect 33 0 34 0;
#X connect 34 0 31 0;
#X connect 35 0 6 0;
#X connect 35 1 2 0;
#X connect 35 2 3 0;
#X connect 35 3 36 0;
#X connect 35 3 37 0;
#X connect 36 0 39 0;
#X connect 38 0 18 0;
#X connect 39 0 18 1;
